<?xml version="1.0" encoding="utf-8"?>
<!-- Generator: Adobe Illustrator 21.1.0, SVG Export Plug-In . SVG Version: 6.00 Build 0)  -->
<svg version="1.1" id="Layer_1" xmlns="http://www.w3.org/2000/svg" xmlns:xlink="http://www.w3.org/1999/xlink" x="0px" y="0px"
	 viewBox="0 0 146.6 138.2" enable-background="new 0 0 146.6 138.2" xml:space="preserve">
<path fill="#FADC5C" d="M16,76.2c-8.8,0-16,7.2-16,16s7.2,16,16,16s16-7.2,16-16S24.8,76.2,16,76.2z"/>
<path fill="#FADC5C" d="M129.8,7.5c-9.3,0-16.8,7.5-16.8,16.8s7.5,16.8,16.8,16.8s16.8-7.5,16.8-16.8S139.1,7.5,129.8,7.5z"/>
<path fill="#1D3A6A" d="M100.4,79c0.9,0,1.9,0.4,2.5,1.1l8.9,8.9c5.2,5.2,8,12.4,7.5,19.8c-0.8,13.8-12.6,24.4-26.4,24.4l-24.2,0
	c-3.4,0-3.9-4.9-0.6-5.6c0.6-0.1,1.2-0.2,1.8-0.2h11.6c1.6,0,3-1.3,2.9-3.1c0-0.7-0.4-1.4-0.9-1.9L56.4,95.1c-0.6-0.6-1-1.4-1-2.3
	c0-1.1,0.6-2.2,1.6-2.8c0.5-0.3,1-0.4,1.6-0.4c0.9,0,1.8,0.4,2.5,1.1l18.2,18.2c0.6,0.6,1.4,0.9,2.3,0.9c0.8,0,1.6-0.3,2.1-1
	c0.5-0.5,0.7-1.2,0.7-1.9c0-0.7-0.3-1.5-0.8-2.1l-7.3-7.3c-0.6-0.6-1-1.4-1-2.3c0-1.1,0.6-2.2,1.6-2.8c0.5-0.3,1.1-0.5,1.6-0.5
	c0.9,0,1.8,0.4,2.5,1.1l4.1,4.1c0.6,0.6,1.4,0.9,2.3,0.9c0.8,0,1.6-0.3,2.1-1c0.5-0.5,0.7-1.2,0.7-1.9c0-0.7-0.3-1.5-0.8-2.1
	l-2.9-2.9c-0.6-0.6-1-1.4-1-2.3c0-1.1,0.6-2.2,1.6-2.8c0.5-0.3,1.1-0.5,1.6-0.5c0.9,0,1.8,0.4,2.5,1.1l2.7,2.7
	c0.6,0.6,1.4,0.9,2.3,0.9c0.8,0,1.6-0.3,2.1-1c0.5-0.5,0.7-1.2,0.7-1.9c0-0.7-0.3-1.5-0.8-2.1c-1.3-1.3-1.3-3.5,0.1-4.7
	C98.9,79.3,99.7,79,100.4,79 M100.4,74C100.4,74,100.4,74,100.4,74c-2.1,0-4,0.8-5.5,2.1c-1.3,1.2-2.2,2.8-2.5,4.5
	c-1.1-0.5-2.4-0.8-3.6-0.8c-1.5,0-3,0.4-4.3,1.2c-2.3,1.4-3.7,3.7-3.9,6.3c-0.7-0.2-1.3-0.3-2-0.3c-1.5,0-3,0.4-4.3,1.2
	c-1.8,1.1-3.1,2.9-3.6,4.8l-6-6c-1.6-1.6-3.8-2.5-6-2.5c-1.5,0-3,0.4-4.2,1.2c-2.5,1.5-4,4.2-4,7.1c0,2.2,0.9,4.3,2.4,5.9l23.6,23.6
	H70c-1,0-1.9,0.1-2.8,0.3c-4,0.9-6.6,4.4-6.2,8.5c0.4,4.1,3.7,7,7.8,7l24.2,0c16.7,0,30.5-12.8,31.4-29.1c0.5-8.9-2.7-17.4-9-23.7
	l-8.9-8.9C104.9,74.9,102.7,74,100.4,74L100.4,74L100.4,74z"/>
<path fill="#1D3A6A" d="M23.4,118.6C12.2,118.6,3,109.5,3,98.2s9.1-20.4,20.4-20.4S43.8,87,43.8,98.2S34.6,118.6,23.4,118.6z
	 M23.4,83.7c-8,0-14.5,6.5-14.5,14.5s6.5,14.5,14.5,14.5s14.5-6.5,14.5-14.5S31.4,83.7,23.4,83.7z"/>
<path fill="#1D3A6A" d="M126.4,39.5c-1.3,0-2.5-0.9-2.8-2.2c-0.4-1.6,0.6-3.1,2.1-3.5c1.6-0.4,3.1-1,4.4-1.9c1.4-0.9,3.2-0.5,4,0.9
	c0.9,1.4,0.5,3.2-0.9,4c-1.9,1.2-4,2.1-6.2,2.7C126.9,39.5,126.7,39.5,126.4,39.5z M115.1,38.5c-0.4,0-0.8-0.1-1.2-0.3
	c-2.1-0.9-3.9-2.2-5.6-3.8c-1.2-1.1-1.2-3-0.1-4.1c1.1-1.2,3-1.2,4.1-0.1c1.2,1.1,2.5,2,4,2.7c1.5,0.7,2.1,2.4,1.4,3.9
	C117.2,37.8,116.2,38.5,115.1,38.5z M138.8,28.3c-0.3,0-0.6-0.1-1-0.2c-1.5-0.5-2.3-2.2-1.8-3.7c0.5-1.5,0.8-3.1,0.8-4.8
	c0-1.4-0.2-2.8-0.6-4.1c-0.5-1.5,0.4-3.2,2-3.6c1.6-0.4,3.2,0.4,3.6,2c0.5,1.9,0.8,3.8,0.8,5.7c0,2.3-0.4,4.5-1.1,6.7
	C141.2,27.5,140,28.3,138.8,28.3z M105,25.1c-1.4,0-2.7-1-2.9-2.5c-0.1-0.9-0.2-1.9-0.2-2.9c0-1.3,0.1-2.6,0.4-3.9
	c0.3-1.6,1.8-2.6,3.4-2.3c1.6,0.3,2.6,1.8,2.3,3.4c-0.2,0.9-0.3,1.8-0.3,2.8c0,0.7,0,1.4,0.1,2.1c0.2,1.6-0.9,3.1-2.5,3.3
	C105.3,25,105.2,25.1,105,25.1z M110.9,9.4c-0.8,0-1.6-0.3-2.2-1c-1.1-1.2-0.9-3,0.3-4.1c1.7-1.5,3.7-2.7,5.8-3.5
	c1.5-0.6,3.2,0.1,3.8,1.6c0.6,1.5-0.1,3.2-1.6,3.8c-1.5,0.6-2.9,1.5-4.1,2.5C112.3,9.1,111.6,9.4,110.9,9.4z M132.5,8.4
	c-0.6,0-1.2-0.2-1.7-0.5c-1.3-0.9-2.8-1.7-4.3-2.1c-1.5-0.5-2.4-2.1-2-3.6c0.5-1.5,2.1-2.4,3.6-2c2.2,0.6,4.2,1.6,6.1,3
	c1.3,0.9,1.6,2.8,0.7,4.1C134.3,7.9,133.4,8.4,132.5,8.4z"/>
<path fill="#1D3A6A" d="M32.1,83.7c-0.2,0-0.5,0-0.7-0.1c-1.6-0.4-2.5-1.9-2.1-3.5c0.5-1.9,1.3-3.9,2.4-6.1c0.7-1.4,2.5-2,3.9-1.2
	c1.4,0.7,2,2.5,1.2,3.9c-0.9,1.7-1.5,3.3-1.9,4.7C34.6,82.8,33.4,83.7,32.1,83.7z M40.8,68.7c-0.6,0-1.3-0.2-1.8-0.7
	c-1.2-1-1.4-2.9-0.4-4.1c1.2-1.5,2.5-3,3.9-4.5c1.1-1.2,2.9-1.3,4.1-0.2c1.2,1.1,1.3,2.9,0.2,4.1c-1.3,1.4-2.6,2.9-3.7,4.3
	C42.5,68.3,41.7,68.7,40.8,68.7z M52.9,56.1c-0.8,0-1.6-0.3-2.1-0.9c-1.1-1.2-1-3,0.2-4.1c1.4-1.3,2.9-2.6,4.4-3.9
	c1.2-1,3.1-0.9,4.1,0.3c1,1.2,0.9,3.1-0.3,4.1c-1.5,1.3-2.9,2.5-4.3,3.8C54.3,55.8,53.6,56.1,52.9,56.1z M66.4,44.9
	c-0.9,0-1.8-0.4-2.3-1.2c-1-1.3-0.7-3.1,0.6-4.1c1.6-1.2,3.2-2.4,4.8-3.5c1.3-0.9,3.1-0.6,4.1,0.7c0.9,1.3,0.6,3.1-0.7,4.1
	c-1.5,1.1-3.1,2.2-4.6,3.4C67.6,44.7,67,44.9,66.4,44.9z M80.8,35.1c-1,0-1.9-0.5-2.5-1.4c-0.8-1.4-0.4-3.2,1-4
	c1.8-1.1,3.5-2.1,5.2-3c1.4-0.8,3.2-0.2,3.9,1.2c0.8,1.4,0.2,3.2-1.2,3.9c-1.6,0.9-3.3,1.8-4.9,2.8C81.8,34.9,81.3,35.1,80.8,35.1z
	 M96.4,27.3c-1.2,0-2.3-0.7-2.7-1.9c-0.5-1.5,0.2-3.2,1.8-3.7c2.2-0.8,4.3-1.4,6.1-1.7c1.6-0.3,3.1,0.8,3.4,2.4
	c0.3,1.6-0.8,3.1-2.4,3.4c-1.5,0.3-3.2,0.7-5.1,1.4C97.1,27.2,96.8,27.3,96.4,27.3z"/>
</svg>
