<?xml version="1.0" encoding="utf-8"?>
<!-- Generator: Adobe Illustrator 21.1.0, SVG Export Plug-In . SVG Version: 6.00 Build 0)  -->
<svg version="1.1" id="Layer_1" xmlns="http://www.w3.org/2000/svg" xmlns:xlink="http://www.w3.org/1999/xlink" x="0px" y="0px"
	 viewBox="0 0 171.3 138.6" style="enable-background:new 0 0 171.3 138.6;" xml:space="preserve">
<style type="text/css">
	.st0{fill:#FADC5C;}
	.st1{fill:#1D3A6A;}
</style>
<path class="st0" d="M132.6,0H40C18.7,0,2.6,19.4,6.6,40.3l3.2,16.5L1.7,65c-2.2,2.2-2.2,5.8,0,8.1L15.6,87l1.5,7.9
	c2.8,14.9,15.2,26,30.3,27.4l74.8,6.7c18.3,1.6,34.5-11.5,36.7-29.7l7.4-61.3C168.8,17.8,153,0,132.6,0z"/>
<g>
	<path class="st1" d="M128,138.6c-1.1,0-2.2,0-3.3-0.2l-74.8-6.7c-15.9-1.4-29.1-13.4-32.1-29l-1.4-7.3L3,81.9
		c-1.5-1.5-2.3-3.4-2.3-5.4s0.8-4,2.3-5.4l7.4-7.4l-3-15.5c-2-10.6,0.7-21.4,7.6-29.7s16.9-13,27.7-13h92.7
		c10.3,0,20.1,4.4,26.9,12.1c6.8,7.7,10,18,8.8,28.2l-7.4,61.3C161.4,125.3,146.1,138.6,128,138.6z M42.7,9.4
		c-9.6,0-18.5,4.2-24.6,11.6s-8.5,17-6.7,26.4l3.2,16.5c0.1,0.7-0.1,1.3-0.6,1.8l-8.1,8.1c-0.7,0.7-1.1,1.6-1.1,2.6s0.4,1.9,1.1,2.6
		l13.8,14c0.3,0.3,0.5,0.6,0.6,1l1.5,7.9c2.7,13.9,14.4,24.5,28.5,25.8l74.8,6.7c1,0.1,2,0.1,3,0.1c16,0,29.6-11.8,31.6-28.1
		l7.4-61.3c1.1-9.1-1.7-18.2-7.8-25S144.5,9.3,135.4,9.3L42.7,9.4L42.7,9.4z"/>
</g>
<g>
	<path class="st1" d="M47.4,69.6c-0.2-0.2-0.4-0.6-0.4-1v-7.7c0-0.4,0.1-0.7,0.4-0.9c0.2-0.2,0.6-0.4,1-0.4c0.4,0,0.7,0.1,1,0.4
		c0.2,0.2,0.4,0.6,0.4,0.9v7.7c0,0.4-0.1,0.7-0.4,1c-0.2,0.2-0.6,0.4-1,0.4C48,69.9,47.7,69.8,47.4,69.6z"/>
	<path class="st1" d="M58.1,63.3c0.4,0.5,0.6,1.3,0.6,2.3v3.1c0,0.4-0.1,0.7-0.3,0.9c-0.2,0.2-0.5,0.3-0.9,0.3
		c-0.4,0-0.7-0.1-0.9-0.3c-0.2-0.2-0.3-0.5-0.3-0.9v-3c0-0.4-0.1-0.7-0.2-0.9c-0.1-0.2-0.4-0.3-0.7-0.3c-0.4,0-0.7,0.1-0.9,0.4
		c-0.2,0.2-0.3,0.6-0.3,1v2.9c0,0.4-0.1,0.7-0.3,0.9c-0.2,0.2-0.5,0.3-0.9,0.3c-0.4,0-0.7-0.1-0.9-0.3c-0.2-0.2-0.3-0.5-0.3-0.9v-5
		c0-0.3,0.1-0.6,0.4-0.8c0.2-0.2,0.6-0.3,0.9-0.3c0.4,0,0.7,0.1,0.9,0.3c0.2,0.2,0.3,0.5,0.3,0.8c0.3-0.4,0.6-0.6,1-0.8
		c0.4-0.2,0.8-0.3,1.3-0.3C57.1,62.5,57.7,62.8,58.1,63.3z"/>
	<path class="st1" d="M60.4,61.2c-0.3-0.2-0.4-0.5-0.4-0.9c0-0.4,0.1-0.7,0.4-0.9c0.3-0.2,0.6-0.3,1-0.3c0.4,0,0.8,0.1,1,0.3
		c0.3,0.2,0.4,0.5,0.4,0.9c0,0.4-0.1,0.7-0.4,0.9c-0.3,0.2-0.6,0.3-1,0.3C61,61.6,60.7,61.4,60.4,61.2z M60.6,69.6
		c-0.2-0.2-0.4-0.5-0.4-0.9v-5c0-0.4,0.1-0.7,0.4-0.9c0.2-0.2,0.6-0.3,0.9-0.3c0.4,0,0.7,0.1,0.9,0.3c0.2,0.2,0.4,0.5,0.4,0.9v5
		c0,0.4-0.1,0.7-0.4,0.9c-0.2,0.2-0.6,0.3-0.9,0.3C61.1,69.9,60.8,69.8,60.6,69.6z"/>
	<path class="st1" d="M70.8,68.9c0,0.6-0.4,1-1.2,1h-4.6c-0.3,0-0.6-0.1-0.8-0.3c-0.2-0.2-0.3-0.5-0.3-0.8c0-0.3,0.1-0.6,0.4-0.9
		l3-3.3H65c-0.8,0-1.2-0.3-1.2-1c0-0.6,0.4-0.9,1.2-0.9h4.4c0.3,0,0.6,0.1,0.8,0.3s0.3,0.5,0.3,0.8c0,0.3-0.1,0.6-0.4,0.9L67.1,68
		h2.5C70.4,68,70.8,68.3,70.8,68.9z"/>
	<path class="st1" d="M72,61.2c-0.3-0.2-0.4-0.5-0.4-0.9c0-0.4,0.1-0.7,0.4-0.9c0.3-0.2,0.6-0.3,1-0.3c0.4,0,0.8,0.1,1,0.3
		c0.3,0.2,0.4,0.5,0.4,0.9c0,0.4-0.1,0.7-0.4,0.9c-0.3,0.2-0.6,0.3-1,0.3C72.6,61.6,72.3,61.4,72,61.2z M72.1,69.6
		c-0.2-0.2-0.4-0.5-0.4-0.9v-5c0-0.4,0.1-0.7,0.4-0.9c0.2-0.2,0.6-0.3,0.9-0.3c0.4,0,0.7,0.1,0.9,0.3c0.2,0.2,0.4,0.5,0.4,0.9v5
		c0,0.4-0.1,0.7-0.4,0.9c-0.2,0.2-0.6,0.3-0.9,0.3C72.7,69.9,72.4,69.8,72.1,69.6z"/>
	<path class="st1" d="M81.6,63.3c0.5,0.5,0.8,1.3,0.8,2.4v3c0,0.4-0.1,0.7-0.3,0.9c-0.2,0.2-0.5,0.3-0.9,0.3c-0.3,0-0.6-0.1-0.8-0.3
		c-0.2-0.2-0.3-0.5-0.4-0.8c-0.1,0.3-0.4,0.6-0.7,0.8C79,69.9,78.6,70,78.1,70c-0.5,0-0.9-0.1-1.3-0.3c-0.4-0.2-0.7-0.5-0.9-0.8
		c-0.2-0.4-0.3-0.8-0.3-1.2c0-0.5,0.1-0.9,0.4-1.2c0.3-0.3,0.7-0.5,1.3-0.7s1.4-0.2,2.3-0.2h0.4v-0.2c0-0.3-0.1-0.6-0.2-0.7
		c-0.2-0.1-0.4-0.2-0.8-0.2c-0.4,0-1,0.1-1.7,0.4C77,64.9,76.8,65,76.6,65c-0.2,0-0.4-0.1-0.6-0.3c-0.1-0.2-0.2-0.4-0.2-0.7
		c0-0.2,0-0.4,0.1-0.5c0.1-0.1,0.2-0.3,0.4-0.4c0.3-0.2,0.8-0.3,1.3-0.4s1-0.2,1.5-0.2C80.3,62.5,81.1,62.8,81.6,63.3z M79.6,67.9
		c0.2-0.2,0.3-0.6,0.3-0.9v-0.2h-0.2c-0.6,0-1.1,0.1-1.3,0.2C78.1,67,78,67.2,78,67.5c0,0.2,0.1,0.4,0.2,0.6
		c0.1,0.1,0.3,0.2,0.5,0.2C79.1,68.2,79.4,68.1,79.6,67.9z"/>
	<path class="st1" d="M88.2,61.2c-0.3-0.2-0.4-0.5-0.4-0.9c0-0.4,0.1-0.7,0.4-0.9c0.3-0.2,0.6-0.3,1-0.3c0.4,0,0.8,0.1,1,0.3
		c0.3,0.2,0.4,0.5,0.4,0.9c0,0.4-0.1,0.7-0.4,0.9c-0.3,0.2-0.6,0.3-1,0.3C88.8,61.6,88.5,61.4,88.2,61.2z M88.3,69.6
		c-0.2-0.2-0.4-0.5-0.4-0.9v-5c0-0.4,0.1-0.7,0.4-0.9c0.2-0.2,0.6-0.3,0.9-0.3c0.4,0,0.7,0.1,0.9,0.3c0.2,0.2,0.4,0.5,0.4,0.9v5
		c0,0.4-0.1,0.7-0.4,0.9c-0.2,0.2-0.6,0.3-0.9,0.3C88.9,69.9,88.6,69.8,88.3,69.6z"/>
	<path class="st1" d="M92.4,69.6c-0.2-0.2-0.4-0.5-0.4-0.9v-8c0-0.4,0.1-0.7,0.4-0.9c0.2-0.2,0.6-0.3,0.9-0.3c0.4,0,0.7,0.1,0.9,0.3
		c0.2,0.2,0.4,0.5,0.4,0.9v8c0,0.4-0.1,0.7-0.4,0.9c-0.2,0.2-0.6,0.3-0.9,0.3C93,69.9,92.7,69.8,92.4,69.6z"/>
	<path class="st1" d="M105.4,69c0,0.3-0.1,0.6-0.4,0.8c-0.3,0.2-0.6,0.2-1.1,0.2l-0.4,0c-0.9-0.1-1.5-0.3-2-0.8s-0.7-1.1-0.7-1.9
		v-2.6h-0.4c-0.8,0-1.2-0.3-1.2-1c0-0.6,0.4-0.9,1.2-0.9h0.4v-0.9c0-0.4,0.1-0.7,0.3-0.9c0.2-0.2,0.5-0.3,0.9-0.3
		c0.4,0,0.7,0.1,0.9,0.3c0.2,0.2,0.3,0.5,0.3,0.9v0.9h0.8c0.8,0,1.2,0.3,1.2,0.9c0,0.6-0.4,1-1.2,1h-0.8v2.8c0,0.2,0.1,0.3,0.2,0.5
		c0.1,0.1,0.3,0.2,0.4,0.2l0.4,0C105.1,68.1,105.4,68.4,105.4,69z"/>
	<path class="st1" d="M112.5,67.8c0.1,0.2,0.2,0.4,0.2,0.7c0,0.4-0.2,0.7-0.6,0.9c-0.3,0.2-0.7,0.3-1.2,0.4
		c-0.4,0.1-0.9,0.2-1.2,0.2c-0.8,0-1.5-0.1-2.1-0.4c-0.6-0.3-1-0.7-1.4-1.3c-0.3-0.6-0.5-1.2-0.5-2c0-0.7,0.2-1.4,0.5-1.9
		c0.3-0.6,0.7-1,1.3-1.3c0.5-0.3,1.2-0.5,1.8-0.5c0.7,0,1.3,0.1,1.8,0.4c0.5,0.3,0.9,0.7,1.2,1.2c0.3,0.5,0.4,1.2,0.4,1.9
		c0,0.2-0.1,0.4-0.2,0.5c-0.1,0.1-0.2,0.2-0.4,0.2h-3.8c0.1,0.5,0.2,0.8,0.4,1c0.2,0.2,0.6,0.3,1,0.3c0.2,0,0.5,0,0.7-0.1
		c0.2-0.1,0.4-0.1,0.7-0.2c0.1-0.1,0.3-0.1,0.4-0.2c0.1,0,0.3-0.1,0.4-0.1C112.1,67.6,112.3,67.6,112.5,67.8z M108.6,64.6
		c-0.2,0.2-0.3,0.5-0.4,0.9h2.3c-0.1-0.8-0.4-1.3-1.1-1.3C109.1,64.3,108.8,64.4,108.6,64.6z"/>
	<path class="st1" d="M115,69.8c-0.4-0.1-0.8-0.3-1.2-0.5c-0.1-0.1-0.2-0.2-0.3-0.3c-0.1-0.2-0.1-0.3-0.1-0.6c0-0.3,0.1-0.5,0.2-0.6
		c0.1-0.2,0.3-0.3,0.5-0.3c0.1,0,0.3,0,0.4,0.1c0.1,0,0.3,0.1,0.5,0.2c0.3,0.1,0.6,0.2,0.8,0.2c0.2,0.1,0.5,0.1,0.9,0.1
		c0.3,0,0.5,0,0.6-0.1c0.1-0.1,0.2-0.2,0.2-0.3c0-0.1,0-0.2-0.1-0.2c-0.1-0.1-0.2-0.1-0.4-0.2c-0.2-0.1-0.5-0.1-1-0.2
		c-0.9-0.2-1.5-0.4-1.9-0.7c-0.4-0.3-0.6-0.8-0.6-1.4c0-0.4,0.1-0.8,0.4-1.2c0.3-0.4,0.7-0.6,1.1-0.8c0.5-0.2,1-0.3,1.6-0.3
		c0.4,0,0.9,0.1,1.3,0.2c0.4,0.1,0.8,0.3,1.1,0.4c0.3,0.2,0.4,0.5,0.4,0.8c0,0.3-0.1,0.5-0.2,0.7c-0.1,0.2-0.3,0.3-0.5,0.3
		c-0.3,0-0.5-0.1-0.9-0.2c-0.2-0.1-0.4-0.2-0.6-0.2c-0.2-0.1-0.4-0.1-0.6-0.1c-0.2,0-0.4,0-0.6,0.1c-0.1,0.1-0.2,0.2-0.2,0.3
		c0,0.2,0.1,0.3,0.3,0.4c0.2,0.1,0.6,0.2,1.1,0.3c0.9,0.2,1.6,0.4,2,0.7s0.6,0.8,0.6,1.4c0,0.7-0.3,1.3-0.9,1.7
		c-0.6,0.4-1.4,0.6-2.4,0.6C116,70,115.5,69.9,115,69.8z"/>
	<path class="st1" d="M126.1,69c0,0.3-0.1,0.6-0.4,0.8c-0.3,0.2-0.6,0.2-1.1,0.2l-0.4,0c-0.9-0.1-1.5-0.3-2-0.8
		c-0.4-0.5-0.7-1.1-0.7-1.9v-2.6h-0.4c-0.8,0-1.2-0.3-1.2-1c0-0.6,0.4-0.9,1.2-0.9h0.4v-0.9c0-0.4,0.1-0.7,0.3-0.9
		c0.2-0.2,0.5-0.3,0.9-0.3c0.4,0,0.7,0.1,0.9,0.3c0.2,0.2,0.3,0.5,0.3,0.9v0.9h0.8c0.8,0,1.2,0.3,1.2,0.9c0,0.6-0.4,1-1.2,1h-0.8
		v2.8c0,0.2,0.1,0.3,0.2,0.5c0.1,0.1,0.3,0.2,0.4,0.2l0.4,0C125.8,68.1,126.1,68.4,126.1,69z"/>
</g>
</svg>
