<?xml version="1.0" encoding="utf-8"?>
<!-- Generator: Adobe Illustrator 21.1.0, SVG Export Plug-In . SVG Version: 6.00 Build 0)  -->
<svg version="1.1" id="Layer_1" xmlns="http://www.w3.org/2000/svg" xmlns:xlink="http://www.w3.org/1999/xlink" x="0px" y="0px"
	 viewBox="0 0 140.5 121.7" enable-background="new 0 0 140.5 121.7" xml:space="preserve">
<g>
	<path fill="#003671" d="M74.6,35.6c23.1,0.8,47.5,4.8,56.2,8.1c7.2,2.7,10.2,8.4,9.6,29.9c-0.6,22.6-1.8,31.5-17.3,31.5
		c-8.6,0-51.6,0-64.9,0c0,0-0.7,15-9.9,16.4c-12.5,1.9-25.7-17.1-25.7-17.1s-10.3,0.7-17.2-7.2c-5.5-6.3-6-15.2-4.7-20.1
		c1.3-4.6,5.9-6.6,5.9-6.6C4.8,63.2,3,52.9,3.2,43.2c0.1-7.6,1.4-21.5,10.9-23.5c8-1.8,10.3,4.2,10.3,4.2c0,0,5.1-9.1,14.8-10.3
		c11.6-1.4,14.5,9.2,14.5,9.2S66.2,2,78.2,0.2c11.7-1.8,16.1,7.5,10.3,16C84.7,21.8,77.4,29.2,74.6,35.6"/>
	<path fill="#FFD500" d="M28.2,28.3C28.2,28.3,28.2,28.3,28.2,28.3c-1.4,4.3-1.2,8.7,0.5,11.4c1.1,1.8,2.8,2.8,5.1,3.1
		c6.5,0.6,12.1-6.6,14.2-13.6c1.1-3.9,0.8-7.1-0.8-9.2c-1.3-1.7-3.3-2.6-6-2.6C35.3,17.6,30.6,21.6,28.2,28.3"/>
	<path fill="#FFD500" d="M7.8,88.5c0,0,1,3.1,3.6,3.8c2.4,0.6,2.4-0.7,3.7-0.6c1.3,0.1,2.2,1.3,2.2,2.6c0,2.4-2.4,3.6-5.4,2.6
		C8,95.7,5.3,91,4.3,85.9c-1.1-5.1,0.1-9.7,3.9-9.4c4.4,0.3,7.4,7.5,7.9,10.2c0.5,2.3-0.2,3.3-1.7,3C12.8,89.5,7.8,88.5,7.8,88.5
		 M11.7,84.9c0,0-0.9-3.7-3-4C6.7,80.7,7,84.1,7,84.1C8.4,84.4,11.7,84.9,11.7,84.9"/>
	<path fill="#FFD500" d="M37.7,98.2c-0.1-7,1.2-16.4,2.3-19.5c1-2.7,4.5-4,8.6-3.5c3.9,0.5,7.2,3.4,6.2,7.9c-1.1,5.2-3,24-3.5,28.8
		c-0.5,4.6-6.1,9-16.1-0.4c-6.3-5.9-16.8-24.3-18.3-29.4c-1.1-3.7,0.8-5.8,2.6-6.6c2.3-1,6.2-0.2,7.4,3
		C28.2,81.6,32.9,91.8,37.7,98.2"/>
	<path fill="#FFD500" d="M48.1,43.8c7.1-17.1,15-30.1,23.9-36.7c4.5-3.3,9.1-4.8,12.3-2.7c4.4,2.8,2.2,7.8-0.1,10.3
		C82,17.1,71.7,29.3,65.8,43.1C58.7,39.6,51.7,41.3,48.1,43.8"/>
	<path fill="#FFD500" d="M7.4,47c-0.6-8.3-0.1-13.1,0.8-16.2c0.9-3.1,3-7.5,7-8.2c2.8-0.5,4.9,0.7,3.8,4.5
		c-1.1,3.6-1.7,6.9-1.7,11.7C12.3,39.3,8.5,43.4,7.4,47"/>
	<path fill="#FFD500" d="M123.1,52v31.5c0,2,1.5,4.3,4.8,4.3c3.3,0,4.8-2.3,4.8-4.3V52c0-2.1-1.5-4.2-4.8-4.2
		C124.6,47.7,123.1,50,123.1,52 M122.6,95.7c0,2.8,2.4,5.1,5.2,5.1c2.8,0,5.2-2.3,5.2-5.1c0-2.8-2.4-5.1-5.2-5.1
		C125,90.6,122.6,93,122.6,95.7"/>
	<path fill="#FFD500" d="M57.5,79.3v17.5c0,2.3,1.6,4,3.7,4c2.1,0,3.7-1.7,3.7-4V79.3c0-2.3-1.6-4-3.7-4
		C59.1,75.3,57.5,77,57.5,79.3"/>
	<path fill="#FFD500" d="M112.5,79.3v17.5c0,2.3,1.6,4,3.7,4c2.1,0,3.7-1.7,3.7-4V79.3c0-2.3-1.6-4-3.7-4
		C114.1,75.3,112.5,77,112.5,79.3"/>
	<path fill="#FFD500" d="M74.8,77.7c-0.6-1-1.7-2-3.4-2c-2.1,0-3.6,1.6-3.6,3.9v17.2c0,2.3,1.6,4,3.6,4c2.1,0,3.6-1.7,3.6-4v-11
		c0-2.4,1.3-3.9,3.4-3.9c2.1,0,3.4,1.6,3.4,3.9v11c0,2.3,1.6,4,3.6,4c2.1,0,3.6-1.7,3.6-4V83.7c0-5.3-3.2-8.4-8.6-8.4
		C77.9,75.3,76,76.1,74.8,77.7"/>
	<path fill="#FFD500" d="M91.3,88.1c0,7.4,4.6,12.8,11,12.8c2.5,0,7.8-1.3,7.9-5.1c0-1.5-1.4-4.3-4.2-3c-5.5,2.6-7.7-1.1-7.7-4.7
		c0-3.4,2.2-7.2,7.1-4.9c3.4,1.5,4.8-1,4.8-3c-0.1-3.6-4.2-4.8-7.9-4.8C95.9,75.3,91.3,80.7,91.3,88.1"/>
	<path fill="#FFFFFF" d="M18.3,42.1C14.1,42.8,9,48.3,8.6,57c-0.4,8.6,3.1,14.1,8.8,14.2c5.8,0.1,10.1-5.7,10.4-14
		c0.1-1.9-0.4-4.2-2.9-4.1c-2,0-4.1,0.2-5.7,0.4c-3.1,0.4-3.3,6.2-0.5,6.3c1.6,0.1,3.2-0.2,3.2-0.2S21.4,65,17.4,65
		c-3.6,0-4.7-4.5-4.4-8.3c0.3-4.9,2.6-8.6,5.4-8.7c3.1-0.2,3.6,2.2,5.7,2.2c2.4,0,4.2-4,1.4-6.7C24,42.2,21.5,41.6,18.3,42.1"/>
	<path fill="#FFFFFF" d="M40.4,47.1c-1.8,0-3.3,1.5-4.2,2.5c-0.4-0.9-1.1-1.9-2.8-1.8c-1.6,0.1-3,1.6-3.1,3.6
		c-0.3,5.3-0.5,14.1-0.4,16.2c0.1,2.1,1.3,3.2,3,3.2c1.6,0,2.9-0.9,2.9-3.2c0-2.6,0-5.5,0-8.3c0.1-3.4,1.1-4.1,3.5-4.9
		c2.2-0.8,3.9-1.4,4.1-3.9C43.7,48.4,42.3,47.1,40.4,47.1"/>
	<path fill="#FFFFFF" d="M97.5,59c0,6.6,4.4,11.7,10,11.7c2.4,0,4-0.7,5.4-2.3c0.4,0.7,1.3,1.9,3,1.9c1.9,0,3.4-1.5,3.4-3.5V51.1
		c0-2-1.4-3.5-3.4-3.5c-1.8,0-2.7,1.3-3,1.9c-1.4-1.6-3-2.3-5.4-2.3C101.9,47.2,97.5,52.4,97.5,59 M103.8,59c0-2.6,1.3-5.2,4.2-5.2
		c2.9,0,4.2,2.6,4.2,5.2c0,2.6-1.3,5.2-4.2,5.2C105.1,64.2,103.8,61.6,103.8,59"/>
	<path fill="#FFFFFF" d="M43.7,58.9c0,6.6,4.3,11.8,9.9,11.8c2.4,0,4-0.7,5.3-2.3c0.4,0.7,1.3,1.9,3,1.9c1.9,0,3.3-1.5,3.3-3.5V51.1
		c0-2-1.4-3.5-3.3-3.5c-1.7,0-2.6,1.2-3,1.9c-1.4-1.6-3-2.3-5.3-2.3C48.1,47.2,43.7,52.3,43.7,58.9 M49.9,58.9
		c0-2.6,1.3-5.2,4.1-5.2c2.8,0,4.1,2.6,4.1,5.2c0,2.6-1.3,5.3-4.1,5.3C51.1,64.2,49.9,61.5,49.9,58.9"/>
	<path fill="#FFFFFF" d="M85.3,44.2v3.5c0,0-1.9,0.3-3.4,0.3c-1.6,0-3.5-0.3-3.5-0.3v-3.5c0-2-1.4-3.5-3.4-3.5s-3.4,1.5-3.4,3.5v3.5
		h-1c-1.8,0-3.1,1.4-3.1,3.4c0,2,1.4,3.3,3.1,3.3h1v12.6c0,2,1.4,3.5,3.4,3.5s3.4-1.5,3.4-3.5V54.5c0,0,2-0.3,3.6-0.3
		c1.5,0,3.4,0.3,3.4,0.3v12.6c0,2,1.4,3.5,3.4,3.5c1.9,0,3.4-1.5,3.4-3.5V54.4h1.5c2.2,0,3.4-1.3,3.4-3.3c0-2-1.2-3.4-3.4-3.4h-1.5
		v-3.5c0-2-1.4-3.5-3.4-3.5C86.8,40.7,85.3,42.2,85.3,44.2"/>
</g>
</svg>
