<?xml version="1.0" encoding="utf-8"?>
<!-- Generator: Adobe Illustrator 21.1.0, SVG Export Plug-In . SVG Version: 6.00 Build 0)  -->
<svg version="1.1" id="Layer_1" xmlns="http://www.w3.org/2000/svg" xmlns:xlink="http://www.w3.org/1999/xlink" x="0px" y="0px"
	 viewBox="0 0 78.4 64" enable-background="new 0 0 78.4 64" xml:space="preserve">
<path fill="#1E3A69" d="M78.4,25.5c0-1.6-0.7-3.1-1.9-4.1c-1-0.9-2.4-1.4-3.8-1.4c-1.9,0-3.2,0.8-3.9,1.4c-0.2,0.2-0.5,0.4-0.7,0.7
	c-0.2-0.1-0.4-0.1-0.7-0.2v-8.5c0-1.2-0.3-2.3-0.8-3.3c0.7-1,1.1-2.3,1.1-3.7c0-1.9-0.8-3.6-2.2-4.8C64.7,0.9,63.2,0,60.9,0
	c-2.3,0-3.8,0.9-4.7,1.7C54.8,2.8,54,4.6,54,6.5C54,7,54.1,7.5,54.2,8C52.7,7.3,51,7,48.9,7c-1.3,0-2.5,0.1-3.8,0.4
	c-1.1,0.2-2.1,0.5-3,0.9C41,7.5,39.7,7,38.3,7C37.1,7,36,7.4,35,8c-0.7,0.4-1.4,1.1-1.9,1.8C32.6,9,32,8.4,31.2,8
	c-1-0.6-2.2-1-3.4-1c-1.6,0-3.1,0.5-4.4,1.6c-1.4,1.2-2.3,2.8-2.3,4.6l-0.3,0.1c-0.6,0.2-14.1,4.6-17.3,19.9
	c-0.3,1.1-1.3,6.4,1.7,13.7l-2.3,1.2c-2,1.1-3.1,3.2-2.9,5.4c0.2,2.2,1.7,4.1,3.9,4.8l17.9,5.4c0.5,0.2,1.1,0.2,1.6,0.2
	c2.4,0,4.6-1.6,5.3-3.9l5.5-17.8c0.2-0.7,0.3-1.5,0.2-2.2c0.1-0.1,0.1-0.1,0.2-0.2c0.2,0.2,0.4,0.3,0.7,0.4c0.9,0.5,1.9,0.8,2.9,0.8
	c1,0,2.1-0.3,2.9-0.8c0.3-0.2,0.6-0.4,0.9-0.7c0.4,0.3,0.7,0.5,1.2,0.7c1,0.5,2.2,0.8,3.4,0.8c0.7,0,1.4-0.1,2-0.3
	c0.5,0.2,1.1,0.2,1.7,0.2c1,0,1.8-0.2,2.4-0.5c0.6,0.3,1.4,0.5,2.4,0.5c1.2,0,2.2-0.3,2.9-0.7c0.7,0.4,1.7,0.7,2.9,0.7
	c1.6,0,2.7-0.6,3.5-1.1c1,0.6,2.2,1,3.5,1.1l0.5,0c0.2,0,0.4,0,0.5,0c0.7,0,1.4-0.1,2-0.3c0.6,0.2,1.3,0.3,2,0.3
	c1.4,0,2.6-0.4,3.6-1.2c1.3-1,1.9-2.5,1.9-4.2v-6c0-0.7-0.1-1.3-0.3-1.9C78.3,27,78.4,26.3,78.4,25.5z M26,24.4
	c-0.7,0.1-1.3,0.3-1.8,0.6c0.3-0.9,0.7-1.7,1-2.5l0.9,1.9C26.1,24.4,26,24.4,26,24.4z"/>
<g>
	<g>
		<path fill="#FADC5C" d="M23,18.2c-6.3,10.4-3.8,18.3-1.8,22.2c0.5,0.9,0.9,1.6,1.2,2l5.8-3.1c1.2-0.6,2.6,0.5,2.2,1.8l-5.5,17.8
			c-0.2,0.8-1.1,1.3-1.9,1L5.1,54.5c-1.3-0.4-1.5-2.2-0.3-2.8l5.7-3c0,0,0,0,0,0c-4.6-8.4-3-14.4-3-14.6c2.8-13.2,14.5-17,14.6-17
			l1.9-0.6L23,18.2z"/>
	</g>
	<g>
		<g>
			<path fill="#FADC5C" d="M37.1,11.4c0.4-0.2,0.8-0.3,1.2-0.3c0.6,0,1.2,0.2,1.7,0.6c0.5,0.4,0.7,0.9,0.7,1.5c0,0.3-0.1,0.7-0.2,1
				l-5.1,10.1c-0.2,0.5-0.6,0.9-1,1.1c-0.4,0.3-0.9,0.4-1.4,0.4c-0.5,0-1-0.1-1.5-0.4c-0.4-0.3-0.8-0.6-1-1.1l-5.1-10.1
				c-0.2-0.4-0.2-0.7-0.2-0.9c0-0.6,0.3-1.2,0.8-1.6c0.5-0.4,1.1-0.7,1.8-0.7c0.5,0,0.9,0.1,1.3,0.4c0.4,0.2,0.7,0.6,0.9,1.1
				l3.1,6.7l3.1-6.7C36.4,12,36.7,11.6,37.1,11.4z"/>
		</g>
		<g>
			<path fill="#FADC5C" d="M53.8,12.5c1.1,1.1,1.6,2.7,1.6,4.8v6.1c0,0.7-0.2,1.3-0.7,1.7c-0.4,0.4-1,0.6-1.8,0.6
				c-0.7,0-1.2-0.2-1.7-0.6s-0.7-0.9-0.7-1.6c-0.3,0.7-0.7,1.2-1.4,1.6c-0.6,0.4-1.4,0.6-2.3,0.6c-1,0-1.9-0.2-2.7-0.6
				c-0.8-0.4-1.4-0.9-1.9-1.7c-0.5-0.7-0.7-1.5-0.7-2.4c0-1,0.3-1.8,0.8-2.5c0.5-0.6,1.4-1.1,2.5-1.3c1.2-0.3,2.7-0.4,4.7-0.4h0.8
				v-0.4c0-0.7-0.2-1.2-0.5-1.5s-0.8-0.5-1.6-0.5c-0.8,0-2,0.3-3.5,0.8c-0.4,0.2-0.8,0.2-1.1,0.2c-0.5,0-0.9-0.2-1.2-0.5
				c-0.3-0.3-0.4-0.8-0.4-1.4c0-0.4,0.1-0.8,0.3-1c0.2-0.3,0.5-0.5,0.8-0.7c0.7-0.3,1.5-0.6,2.6-0.8c1-0.2,2-0.3,3-0.3
				C51.1,11,52.7,11.5,53.8,12.5z M49.8,21.6c0.4-0.5,0.7-1.1,0.7-1.9v-0.4H50c-1.2,0-2.1,0.1-2.6,0.3c-0.5,0.2-0.8,0.6-0.8,1.1
				c0,0.4,0.1,0.8,0.4,1.1c0.3,0.3,0.6,0.4,1.1,0.4C48.8,22.4,49.4,22.1,49.8,21.6z"/>
		</g>
		<g>
			<path fill="#FADC5C" d="M58.8,8.3C58.3,7.8,58,7.2,58,6.5c0-0.8,0.3-1.4,0.8-1.8C59.3,4.2,60,4,60.9,4c0.9,0,1.5,0.2,2.1,0.7
				c0.5,0.4,0.8,1,0.8,1.8c0,0.8-0.3,1.4-0.8,1.8C62.5,8.7,61.8,9,60.9,9C60,9,59.3,8.7,58.8,8.3z M59,25.2c-0.5-0.4-0.7-1-0.7-1.8
				v-10c0-0.8,0.2-1.4,0.7-1.8c0.5-0.4,1.1-0.6,1.8-0.6c0.7,0,1.4,0.2,1.8,0.6c0.5,0.4,0.7,1,0.7,1.8v10c0,0.8-0.2,1.4-0.7,1.8
				c-0.5,0.4-1.1,0.6-1.8,0.6C60.1,25.8,59.5,25.6,59,25.2z"/>
		</g>
	</g>
	<g>
		<g>
			<path fill="#FADC5C" d="M31.6,29.1c0.6,0.6,1,1.6,1,2.9v3.7c0,0.4-0.1,0.8-0.4,1c-0.3,0.3-0.6,0.4-1.1,0.4c-0.4,0-0.7-0.1-1-0.4
				c-0.3-0.2-0.4-0.6-0.4-0.9c-0.2,0.4-0.4,0.8-0.8,1c-0.4,0.2-0.9,0.4-1.4,0.4c-0.6,0-1.1-0.1-1.6-0.4c-0.5-0.2-0.9-0.6-1.1-1
				c-0.3-0.4-0.4-0.9-0.4-1.4c0-0.6,0.2-1.1,0.5-1.5c0.3-0.4,0.8-0.6,1.5-0.8c0.7-0.2,1.7-0.2,2.8-0.2h0.5v-0.2
				c0-0.4-0.1-0.7-0.3-0.9s-0.5-0.3-0.9-0.3c-0.5,0-1.2,0.2-2.1,0.5c-0.3,0.1-0.5,0.1-0.7,0.1c-0.3,0-0.5-0.1-0.7-0.3
				c-0.2-0.2-0.3-0.5-0.3-0.8c0-0.3,0.1-0.5,0.2-0.6c0.1-0.2,0.3-0.3,0.5-0.4c0.4-0.2,0.9-0.4,1.5-0.5c0.6-0.1,1.2-0.2,1.8-0.2
				C29.9,28.2,30.9,28.5,31.6,29.1z M29.2,34.6c0.3-0.3,0.4-0.7,0.4-1.2v-0.2h-0.3c-0.7,0-1.3,0.1-1.6,0.2c-0.3,0.1-0.5,0.4-0.5,0.7
				c0,0.3,0.1,0.5,0.3,0.7s0.4,0.3,0.7,0.3C28.5,35.1,28.9,34.9,29.2,34.6z"/>
		</g>
		<g>
			<path fill="#FADC5C" d="M40.6,28.4c0.2-0.1,0.5-0.2,0.7-0.2c0.4,0,0.7,0.1,1,0.4c0.3,0.3,0.4,0.6,0.4,0.9c0,0.2,0,0.4-0.1,0.6
				l-3.1,6.1c-0.1,0.3-0.3,0.5-0.6,0.7c-0.3,0.2-0.6,0.2-0.9,0.2s-0.6-0.1-0.9-0.2c-0.3-0.2-0.5-0.4-0.6-0.7l-3.1-6.1
				c-0.1-0.2-0.1-0.4-0.1-0.6c0-0.4,0.2-0.7,0.5-1c0.3-0.3,0.7-0.4,1.1-0.4c0.3,0,0.5,0.1,0.8,0.2c0.2,0.1,0.4,0.4,0.6,0.7l1.9,4
				l1.8-4C40.2,28.8,40.4,28.6,40.6,28.4z"/>
		</g>
		<g>
			<path fill="#FADC5C" d="M50.7,29.1c0.6,0.6,1,1.6,1,2.9v3.7c0,0.4-0.1,0.8-0.4,1c-0.3,0.3-0.6,0.4-1.1,0.4c-0.4,0-0.7-0.1-1-0.4
				c-0.3-0.2-0.4-0.6-0.4-0.9c-0.2,0.4-0.4,0.8-0.8,1c-0.4,0.2-0.9,0.4-1.4,0.4c-0.6,0-1.1-0.1-1.6-0.4c-0.5-0.2-0.9-0.6-1.1-1
				c-0.3-0.4-0.4-0.9-0.4-1.4c0-0.6,0.2-1.1,0.5-1.5c0.3-0.4,0.8-0.6,1.5-0.8c0.7-0.2,1.7-0.2,2.8-0.2h0.5v-0.2
				c0-0.4-0.1-0.7-0.3-0.9s-0.5-0.3-0.9-0.3c-0.5,0-1.2,0.2-2.1,0.5c-0.3,0.1-0.5,0.1-0.7,0.1c-0.3,0-0.5-0.1-0.7-0.3
				c-0.2-0.2-0.3-0.5-0.3-0.8c0-0.3,0.1-0.5,0.2-0.6c0.1-0.2,0.3-0.3,0.5-0.4c0.4-0.2,0.9-0.4,1.5-0.5c0.6-0.1,1.2-0.2,1.8-0.2
				C49.1,28.2,50.1,28.5,50.7,29.1z M48.3,34.6c0.3-0.3,0.4-0.7,0.4-1.2v-0.2h-0.3c-0.7,0-1.3,0.1-1.6,0.2c-0.3,0.1-0.5,0.4-0.5,0.7
				c0,0.3,0.1,0.5,0.3,0.7c0.2,0.2,0.4,0.3,0.7,0.3C47.7,35.1,48,34.9,48.3,34.6z"/>
		</g>
		<g>
			<path fill="#FADC5C" d="M61.5,29.1c0.5,0.6,0.8,1.5,0.8,2.8v3.8c0,0.4-0.1,0.8-0.4,1.1c-0.3,0.3-0.7,0.4-1.1,0.4
				s-0.9-0.1-1.1-0.4c-0.3-0.3-0.4-0.6-0.4-1.1V32c0-0.5-0.1-0.9-0.3-1.1c-0.2-0.2-0.5-0.4-0.8-0.4c-0.5,0-0.8,0.1-1.1,0.4
				c-0.3,0.3-0.4,0.7-0.4,1.2v3.5c0,0.4-0.1,0.8-0.4,1.1c-0.3,0.3-0.7,0.4-1.1,0.4c-0.5,0-0.9-0.1-1.1-0.4c-0.3-0.3-0.4-0.6-0.4-1.1
				v-6.1c0-0.4,0.1-0.7,0.4-1c0.3-0.3,0.7-0.4,1.1-0.4c0.4,0,0.8,0.1,1.1,0.4c0.3,0.2,0.4,0.6,0.4,1c0.3-0.4,0.7-0.8,1.2-1
				s1-0.4,1.6-0.4C60.2,28.2,61,28.5,61.5,29.1z"/>
		</g>
		<g>
			<path fill="#FADC5C" d="M70.3,35.9c0,0.4-0.2,0.7-0.5,0.9c-0.3,0.2-0.8,0.3-1.4,0.2l-0.5,0c-1.1-0.1-1.9-0.4-2.4-1
				c-0.5-0.6-0.8-1.3-0.8-2.3v-3.1h-0.5c-0.9,0-1.4-0.4-1.4-1.2c0-0.8,0.5-1.1,1.4-1.1h0.5v-1.1c0-0.4,0.1-0.8,0.4-1.1
				c0.3-0.3,0.7-0.4,1.1-0.4c0.5,0,0.9,0.1,1.1,0.4c0.3,0.3,0.4,0.6,0.4,1.1v1.1h1c0.9,0,1.4,0.4,1.4,1.1c0,0.8-0.5,1.2-1.4,1.2h-1
				V34c0,0.2,0.1,0.4,0.2,0.6c0.1,0.2,0.3,0.2,0.5,0.2l0.5,0C69.9,34.9,70.3,35.3,70.3,35.9z"/>
		</g>
		<g>
			<path fill="#FADC5C" d="M71.5,26.5c-0.3-0.3-0.5-0.6-0.5-1.1c0-0.5,0.2-0.8,0.5-1.1c0.3-0.3,0.7-0.4,1.3-0.4
				c0.5,0,0.9,0.1,1.2,0.4c0.3,0.3,0.5,0.6,0.5,1.1c0,0.5-0.2,0.8-0.5,1.1c-0.3,0.3-0.7,0.4-1.3,0.4C72.2,27,71.8,26.8,71.5,26.5z
				 M71.6,36.8c-0.3-0.2-0.4-0.6-0.4-1.1v-6c0-0.5,0.1-0.8,0.4-1.1c0.3-0.2,0.7-0.4,1.1-0.4c0.4,0,0.8,0.1,1.1,0.4
				c0.3,0.2,0.4,0.6,0.4,1.1v6c0,0.5-0.1,0.8-0.4,1.1c-0.3,0.2-0.7,0.4-1.1,0.4C72.3,37.1,71.9,37,71.6,36.8z"/>
		</g>
	</g>
</g>
</svg>
